<svg width="27" height="27" viewBox="0 0 27 27" fill="none" xmlns="http://www.w3.org/2000/svg">
<g clip-path="url(#clip0)">
<path d="M8.88784 19.8447C7.1117 19.8447 5.672 21.2844 5.672 23.0606C5.672 24.8365 7.1117 26.2762 8.88784 26.2762C10.6637 26.2762 12.1034 24.8365 12.1034 23.0606C12.1016 21.2854 10.663 19.8466 8.88784 19.8447ZM8.88784 25.0939C7.76471 25.0939 6.85424 24.1835 6.85424 23.0606C6.85424 21.9374 7.76471 21.027 8.88784 21.027C10.0107 21.027 10.9212 21.9374 10.9212 23.0606C10.9212 24.1835 10.0107 25.0939 8.88784 25.0939Z" fill="white"/>
<path d="M26.4146 6.34947H5.542L5.11644 3.96721C4.85413 2.50072 3.70467 1.35357 2.23772 1.09426L0.694802 0.822485C0.373149 0.76522 0.0662738 0.979732 0.00900891 1.30115C-0.0480251 1.62281 0.166257 1.92968 0.48791 1.98695L2.0366 2.25873C3.0138 2.43191 3.77879 3.1969 3.95197 4.1741L6.04445 15.9788C6.29152 17.3912 7.51879 18.4215 8.95272 18.4201H21.3663C22.6704 18.4241 23.8222 17.5704 24.1979 16.3216L26.9762 7.11193C27.0276 6.93228 26.9951 6.73878 26.8875 6.58592C26.775 6.43791 26.6002 6.35063 26.4146 6.34947ZM23.0688 15.9727C22.8457 16.7227 22.1546 17.2358 21.3723 17.2319H8.95873C8.09768 17.2342 7.36062 16.6147 7.21492 15.7659L5.7549 7.52571H25.6224L23.0688 15.9727Z" fill="white"/>
<path d="M21.3014 19.8447C19.5252 19.8447 18.0855 21.2844 18.0855 23.0606C18.0855 24.8365 19.5252 26.2762 21.3014 26.2762C23.0773 26.2762 24.517 24.8365 24.517 23.0606C24.5151 21.2854 23.0766 19.8466 21.3014 19.8447ZM21.3014 25.0939C20.1782 25.0939 19.2678 24.1835 19.2678 23.0606C19.2678 21.9374 20.1782 21.027 21.3014 21.027C22.4243 21.027 23.3347 21.9374 23.3347 23.0606C23.3347 24.1835 22.4243 25.0939 21.3014 25.0939Z" fill="white"/>
</g>
<defs>
<clipPath id="clip0">
<rect width="27" height="27" fill="white"/>
</clipPath>
</defs>
</svg>
