<svg xmlns="http://www.w3.org/2000/svg" viewBox="0 0 136.19 65.4"><defs><style>.cls-1{fill:#fff;}</style></defs><g id="Слой_2" data-name="Слой 2"><g id="Слой_1-2" data-name="Слой 1"><path class="cls-1" d="M136.19,65.24,103.05,45.43l8.21-8.29h9v13.8l3.91,2.4V6.56l-3.91,4.15V22.32l-20.72,21L73.41,27.73,119.9,0,94,9.08,68.09,24.55,42.21,9.08,16.29,0,62.78,27.73,36.54,43.4,21,27.7l11-13.63-3.32-2L16.6,27V4.85L12.69,2.52V53l3.91-2.33V33.16l1.86-2.29L33.09,45.46,0,65.24,24.16,57.1l12.89-7.69L45.66,58V52.63l-5.19-5.26L68.09,30.9,95.67,47.34,90,53.15v5.52l9.17-9.27L112,57.1ZM120.3,28v5.22h-5.17Z"/><path class="cls-1" d="M48.42,47v4.61L54.59,48H81.1l6.06,3.66V47L67.92,35.43Zm12.73-3,6.76-4,6.69,4Z"/><polygon class="cls-1" points="64.5 9.86 68.42 20.26 72.33 9.86 85.04 9.86 91.39 6.08 92.06 5.94 91.61 5.94 68.42 5.94 44.78 5.94 51.16 9.86 64.5 9.86"/><polygon class="cls-1" points="98.53 38.6 114.89 22.08 114.89 16.12 98.21 32.93 98.21 17.33 94.29 19.91 90.74 21.93 86.14 24.5 86.14 30.83 90.06 33.22 90.46 26.55 94.29 24.23 94.29 35.32 98.53 38.6"/><path class="cls-1" d="M47.3,27.76,51.23,30l4.09-2.1L35.63,16.17l-2.51,3.4V34L37,38V33.88ZM37,21.83l6.34,3.67L37,29.27Z"/><polygon class="cls-1" points="54.15 53.94 53.14 53.94 51.75 55.61 51.29 56.17 51.29 53.94 50.46 53.94 50.46 58.71 51.29 58.71 51.29 57.22 51.83 56.65 53.26 58.71 54.25 58.71 52.37 56.05 54.15 53.94"/><path class="cls-1" d="M59.76,58.71h.87l-1.81-4.77h-.74l-1.8,4.77h.86l.39-1.11h1.84Zm-2-1.78.69-2,.69,2Z"/><polygon class="cls-1" points="64.75 58.71 64.75 54.6 66.24 54.6 66.24 53.94 62.45 53.94 62.45 54.6 63.93 54.6 63.93 58.71 64.75 58.71"/><path class="cls-1" d="M71.54,58.71h.87L70.6,53.94h-.74l-1.8,4.77h.86l.39-1.11h1.84Zm-2-1.78.69-2,.69,2Z"/><polygon class="cls-1" points="77.93 57.34 75.79 53.94 74.97 53.94 74.97 58.71 75.79 58.71 75.79 55.32 77.92 58.71 78.75 58.71 78.75 53.94 77.93 53.94 77.93 57.34"/><path class="cls-1" d="M83.18,53.94l-1.8,4.77h.86l.38-1.11h1.85l.39,1.11h.87l-1.81-4.77Zm-.32,3,.69-2,.69,2Z"/><path class="cls-1" d="M60.47,61.88H59.29v3.47h.29V63.94h.88a1.26,1.26,0,0,0,.87-.27.92.92,0,0,0,.31-.75,1,1,0,0,0-.32-.76A1.26,1.26,0,0,0,60.47,61.88Zm.65,1.61a1,1,0,0,1-.65.2h-.89V62.13h.91a.89.89,0,0,1,.63.22.85.85,0,0,1,0,1.14Z"/><path class="cls-1" d="M66.82,64.23a.85.85,0,0,1-.93.92,1,1,0,0,1-.68-.24.93.93,0,0,1-.25-.68V61.88h-.29v2.39a1.12,1.12,0,0,0,.35.83,1.23,1.23,0,0,0,.87.3,1.47,1.47,0,0,0,.64-.14,1.11,1.11,0,0,0,.43-.4,1.23,1.23,0,0,0,.15-.61V61.88h-.29Z"/><polygon class="cls-1" points="70.36 65.35 70.66 65.35 70.66 63.73 72.27 63.73 72.27 63.48 70.66 63.48 70.66 62.13 72.51 62.13 72.51 61.88 70.36 61.88 70.36 65.35"/><polygon class="cls-1" points="75.54 65.35 75.83 65.35 75.83 63.73 77.45 63.73 77.45 63.48 75.83 63.48 75.83 62.13 77.69 62.13 77.69 61.88 75.54 61.88 75.54 65.35"/></g></g></svg>